<?xml version="1.0" encoding="utf-8"?>
<!-- Generator: Adobe Illustrator 19.1.0, SVG Export Plug-In . SVG Version: 6.00 Build 0)  -->
<svg version="1.1" id="Layer_1" xmlns="http://www.w3.org/2000/svg" xmlns:xlink="http://www.w3.org/1999/xlink" x="0px" y="0px"
	 width="682.466px" height="299.985px" viewBox="-298 251.015 682.466 299.985"
	 style="enable-background:new -298 251.015 682.466 299.985;" xml:space="preserve">
<style type="text/css">
	.st0{fill:#003876;}
</style>
<g>
	<path class="st0" d="M-149.109,342.645c-12.574,4.504-16.892,16.712-16.892,16.712c-1.693,4.505-6.198,7.882-11.264,7.882h-23.843
		c-6.573,0-12.012-5.442-12.012-12.014c0-6.57,4.504-11.826,12.012-11.826l19.149,0.189l-27.594-27.592
		c-4.691-4.701-4.691-12.208,0-16.886c4.694-4.694,12.201-4.694,16.892,0l27.221,27.204v-18.769c0-6.556,5.26-11.998,12.019-11.998
		c6.572,0,11.826,5.442,11.826,11.998v23.837C-141.596,336.456-144.597,341.149-149.109,342.645 M-153.42,443.627
		c-6.57,0-11.832-4.319-11.646-11.817l0.19-19.157l-27.593,27.59c-4.694,4.704-12.387,4.704-16.892,0
		c-4.694-4.684-4.694-12.387,0-16.889l27.031-27.218h-18.591c-6.759,0-12.012-5.449-12.012-12.001
		c0-6.57,5.252-12.012,12.012-12.012h23.843c5.067,0,9.574,3.002,11.264,7.507c4.318,12.75,16.52,17.068,16.52,17.068
		c4.697,1.688,7.886,6.007,7.886,11.263v23.848C-141.409,438.375-146.662,443.627-153.42,443.627z M-76.661,395.947l-19.146-0.186
		l27.593,27.593c4.695,4.691,4.695,12.204,0,16.889c-4.691,4.704-12.197,4.704-16.891,0l-27.225-27.211v18.778
		c0,7.127-5.442,12.007-12.014,12.007c-6.57,0-12.012-5.442-12.012-12.007v-23.848c0-5.07,3.189-9.76,7.696-11.263
		c12.58-4.319,16.899-16.692,16.899-16.692c1.682-4.504,6.186-7.884,11.263-7.884h23.837c6.57,0,12.019,5.442,12.019,12.012
		C-64.643,390.687-69.531,395.947-76.661,395.947z M-76.476,367.051h-23.837c-5.066,0-9.767-3.002-11.263-7.507
		c-4.319-12.58-16.713-17.086-16.713-17.086c-4.505-1.685-7.878-6.003-7.878-11.263v-23.837c0-6.56,5.438-11.813,12.01-11.813
		c6.57,0,11.826,4.881,11.826,11.813l-0.182,19.142l27.593-27.579c4.695-4.691,12.2-4.691,16.892,0
		c4.694,4.681,4.694,12.374,0,17.075l-27.216,27.025h18.77c6.57,0,12.018,5.448,12.018,12.018
		C-64.457,361.609-69.906,367.051-76.476,367.051z"/>
</g>
<path class="st0" d="M47.013,443.255c-8.823-17.835-24.757-45.997-34.141-60.622H5.358v60.622h-28.156V296.671h46.363
	c30.582,0,48.798,14.623,48.798,43.91c0,20.086-14.459,32.48-29.662,37.547c9.76,13.315,28.531,45.978,37.912,65.127H47.013
	 M19.816,319.184H5.358v41.856h11.263c15.207,0,26.264-6.563,26.264-20.835C42.885,327.632,34.815,319.184,19.816,319.184z
	 M139.544,443.255H92.257V296.671h49.731c28.544,0,47.307,13.876,47.307,38.281c0,17.276-11.452,27.032-22.344,31.351
	c15.021,3.943,27.225,14.266,27.225,33.591C194.176,425.42,174.458,443.255,139.544,443.255z M138.041,318.995h-17.437v38.109
	h16.129c12.198,0,22.71-6.57,22.71-19.712C159.444,324.998,151.938,318.995,138.041,318.995z M137.858,378.883h-17.253v42.027H138.8
	c14.269,0,25.342-5.624,25.342-21.214C164.142,385.455,153.82,378.883,137.858,378.883z M238.654,444.562
	c-12.772,0-28.91-2.058-36.971-4.502l6.39-26.283c5.802,2.634,18.757,6.769,30.581,6.769c14.262,0,24.965-6.2,24.965-18.784
	c0-10.695-6.573-16.306-24.965-23.447c-18.771-7.317-34.338-16.33-34.338-42.99c0-26.087,20.631-40.531,51.985-40.531
	c13.321,0,26.846,2.633,34.914,5.259l-6.193,25.516c-5.449-3.002-15.961-6.758-28.721-6.758c-15.21,0-21.965,5.821-21.965,15.768
	c0,10.137,7.507,13.893,23.833,21.024c22.534,9.572,36.614,19.153,36.614,44.293C294.782,427.673,272.628,444.562,238.654,444.562z"
	/>
<polyline class="st0" points="-192.027,473.878 -200.533,473.878 -205.684,500.635 -209.667,500.635 -204.567,473.878 
	-213.119,473.878 -212.49,470.425 -191.398,470.425 -192.027,473.878 "/>
<path class="st0" d="M-174.831,500.635h-3.937l2.731-14.242c0.67-3.492,0.04-5.016-1.97-5.016c-4.126,0-8.691,8.733-9.727,14.243
	l-0.934,5.016h-3.943l6.224-32.668h3.943l-2.017,10.411c-0.312,1.747-0.853,3.898-2.509,8.779h0.089
	c2.108-4.704,5.645-9.226,10.302-9.226c4.122,0,5.51,2.91,4.657,7.569L-174.831,500.635"/>
<path class="st0" d="M-163.097,490.833c-0.132,0.67-0.22,1.787-0.22,2.599c0,3.438,1.204,4.332,4.789,4.332
	c2.105,0,4.345-0.48,6.231-1.245l0.131,3.134c-2.247,0.901-4.839,1.387-7.75,1.387c-5.106,0-7.479-2.193-7.479-7.208
	c0-8.644,4.84-15.854,12.181-15.854c4.748,0,6.541,2.416,6.541,5.057C-148.673,487.821-153.559,490.482-163.097,490.833
	 M-155.659,481.02c-3.543,0-5.912,3.099-6.948,6.863c6.897-0.271,9.947-1.667,9.947-4.346
	C-152.659,481.919-153.872,481.02-155.659,481.02z"/>
<path class="st0" d="M-124.849,486.759c0.622,1.062,1.163,2.057,1.787,3.18l5.942,10.696h-4.839l-7.148-13.564h-0.582l-2.548,13.564
	h-3.988l5.733-30.21c2.058-0.127,4.207-0.169,7.209-0.169c6.163,0,8.935,2.457,8.935,6.621
	C-114.348,482.643-119.319,486.123-124.849,486.759 M-123.916,473.607c-1.343,0-2.37,0.047-3.174,0.088l-1.973,10.282
	c0.491,0.047,1.303,0.088,2.42,0.088c4.504,0,8.037-2.367,8.037-6.553C-118.605,474.859-120.173,473.607-123.916,473.607z"/>
<path class="st0" d="M-104.983,501.04c-5.6,0-8.153-2.822-8.153-7.92c0-8.874,5.643-15.142,12.892-15.142
	c5.873,0,8.293,3.31,8.293,8.013C-91.952,495.18-98.267,501.04-104.983,501.04 M-100.867,481.377c-4.881,0-8.15,5.471-8.15,11.061
	c0,3.324,1.344,5.152,4.697,5.152c4.346,0,8.153-4.65,8.153-11.143C-96.167,483.17-97.645,481.377-100.867,481.377z"/>
<path class="st0" d="M-84.882,507.979c-2.684,2.687-5.371,4.034-8.014,4.034c-1.113,0-2.237-0.088-3.13-0.311l0.663-3.636
	c0.901,0.324,1.844,0.453,2.83,0.453c1.566,0,3.401-0.941,4.921-2.551c1.745-1.883,2.514-3.899,2.514-7.121
	c0-5.909-1.262-13.254-3.27-20.469h4.478c1.476,5.78,2.501,12.725,2.501,17.471c0,0.806-0.131,1.875-0.305,2.768h0.04
	c3.537-6.221,6.58-12.577,10.08-21.106l3.716,1.097C-73.771,492.351-79.325,502.476-84.882,507.979"/>
<path class="st0" d="M-50.794,500.635h-3.994c0.409-1.923,1.256-4.874,2.599-9.043l-0.092-0.047
	c-1.607,3.445-4.968,9.537-10.387,9.537c-3.224,0-4.971-2.058-4.971-6.756c0-8.204,4.258-16.299,13.974-16.299
	c2.553,0,4.929,0.265,6.986,0.663C-49.054,491.146-49.861,495.307-50.794,500.635 M-54.337,481.208
	c-6.627,0-9.226,6.844-9.226,12.36c0,2.904,0.896,4.075,2.289,4.075c4.207,0,8.775-8.922,9.807-14.249l0.312-1.787
	C-52.058,481.377-53.083,481.208-54.337,481.208z"/>
<polyline class="st0" points="-39.47,500.635 -43.405,500.635 -37.182,467.968 -33.239,467.968 -39.47,500.635 "/>
<path class="st0" d="M-5.944,484.646v0.054c2.864,0.622,4.522,2.952,4.522,5.591c0,5.645-4.661,10.479-13.149,10.479
	c-1.878,0-4.792-0.088-7.652-0.136l5.729-30.21c2.148-0.04,4.993-0.127,8.444-0.127c5.774,0,8.374,2.234,8.374,5.821
	C0.325,480.667-2.63,483.483-5.944,484.646 M-12.167,486.576c-1.163,0-2.667,0-3.382,0.047l-2.017,10.573
	c0.755,0.129,2.017,0.217,3.672,0.217c5.351,0,8.173-3.141,8.173-6.762C-5.721,487.971-7.738,486.576-12.167,486.576z
	 M-9.124,473.607c-1.436,0-2.732,0.047-3.984,0.088l-1.865,9.747c0.852,0.041,1.553,0.041,2.58,0.041c4.928,0,8.42-2.329,8.42-6.464
	C-3.974,475.001-5.046,473.607-9.124,473.607z"/>
<path class="st0" d="M19.579,500.635h-3.988c0.403-1.923,1.256-4.874,2.599-9.043l-0.088-0.047
	c-1.607,3.445-4.968,9.537-10.391,9.537c-3.221,0-4.968-2.058-4.968-6.756c0-8.204,4.253-16.299,13.97-16.299
	c2.553,0,4.927,0.265,6.989,0.663C21.325,491.146,20.523,495.307,19.579,500.635 M16.045,481.208c-6.627,0-9.226,6.844-9.226,12.36
	c0,2.904,0.894,4.075,2.282,4.075c4.214,0,8.78-8.922,9.815-14.249l0.311-1.787C18.334,481.377,17.297,481.208,16.045,481.208z"/>
<path class="st0" d="M44.753,500.635h-3.944l2.732-14.242c0.677-3.492,0.047-5.016-1.97-5.016c-4.115,0-8.685,8.733-9.717,14.243
	l-0.941,5.016h-3.946l2.241-11.602c0.186-1.023,1.793-9.667,1.973-10.654h3.895c-0.268,1.476-0.894,4.033-2.46,8.779h0.092
	c2.1-4.704,5.635-9.226,10.298-9.226c4.123,0,5.503,2.91,4.665,7.569L44.753,500.635"/>
<polyline class="st0" points="62.392,488.465 69.121,500.635 64.281,500.635 58.365,488.864 56.131,500.635 52.185,500.635 
	58.406,467.968 62.351,467.968 58.547,487.883 68.978,477.282 71.889,479.544 62.392,488.465 "/>
<path class="st0" d="M90.429,501.04c-5.598,0-8.149-2.822-8.149-7.92c0-8.874,5.645-15.142,12.901-15.142
	c5.841,0,8.258,3.31,8.258,8.013C103.439,495.18,97.13,501.04,90.429,501.04 M94.552,481.377c-4.881,0-8.158,5.471-8.158,11.061
	c0,3.324,1.347,5.152,4.711,5.152c4.346,0,8.13-4.65,8.13-11.143C99.236,483.17,97.753,481.377,94.552,481.377z"/>
<path class="st0" d="M125.255,471.421c-0.988-0.271-2.2-0.453-3.141-0.453c-3.222,0-5.015,1.745-5.734,5.909l-0.271,1.503h6.053
	l-0.67,3.14h-6.005l-3.852,20.24c-1.386,7.304-4.791,10.256-10.214,10.256c-1.292,0-2.64-0.129-3.846-0.401l0.99-3.404
	c1.029,0.311,2.234,0.44,3.128,0.44c3.18,0,4.974-1.605,5.957-6.804l3.904-20.328h-4.529l0.67-3.14h4.441l0.311-1.544
	c1.07-6.09,4.292-9.137,10.072-9.137c1.258,0,2.464,0.134,3.716,0.405L125.255,471.421"/>
<path class="st0" d="M149.793,474.102c-1.476-0.536-3.094-0.718-4.217-0.718c-4.474,0-6.484,2.558-6.484,4.955
	c0,5.456,9.226,5.638,9.226,12.806c0,5.598-4.928,9.937-11.961,9.937c-1.61,0-3.492-0.175-4.968-0.67l0.758-3.94
	c1.252,0.534,3.046,0.981,4.568,0.981c4.664,0,7.303-2.274,7.303-5.638c0-5.24-9.185-5.287-9.185-12.545
	c0-4.941,3.898-9.287,11.156-9.287c1.523,0,2.87,0.089,4.568,0.44L149.793,474.102"/>
<path class="st0" d="M168.962,482.189c-1.212-0.541-2.504-0.852-4.082-0.852c-5.638,0-8.284,6.362-8.284,11.419
	c0,2.328,0.765,4.697,4.664,4.697c1.752,0,3.54-0.399,4.88-1.021v3.397c-1.61,0.63-3.763,1.171-5.996,1.171
	c-5.781,0-7.75-3.14-7.75-7.351c0-8.502,4.785-15.623,12.766-15.623c1.829,0,3.311,0.265,4.697,0.663L168.962,482.189"/>
<path class="st0" d="M178.952,501.04c-5.597,0-8.156-2.822-8.156-7.92c0-8.874,5.646-15.142,12.896-15.142
	c5.869,0,8.284,3.31,8.284,8.013C191.976,495.18,185.668,501.04,178.952,501.04 M183.069,481.377c-4.887,0-8.151,5.471-8.151,11.061
	c0,3.324,1.34,5.152,4.697,5.152c4.346,0,8.151-4.65,8.151-11.143C187.767,483.17,186.29,481.377,183.069,481.377z"/>
<path class="st0" d="M209.473,481.519h-6.031l-2.193,11.644c-0.629,3.451-0.182,4.386,2.017,4.386c1.246,0,2.173-0.136,3.073-0.353
	l-0.276,3.357c-1.3,0.263-2.844,0.446-4.143,0.446c-4.562,0-5.727-2.152-4.786-7.215l2.369-12.266h-4.522l0.629-3.14h4.474
	l1.388-7.188l4.143-0.935l-1.543,8.123h6.024L209.473,481.519"/>
<polyline class="st0" points="215.2,500.635 211.268,500.635 217.481,467.968 221.428,467.968 215.2,500.635 "/>
<path class="st0" d="M239.426,500.635h-3.988c0.407-1.923,1.259-4.874,2.599-9.043l-0.088-0.047
	c-1.611,3.445-4.969,9.537-10.391,9.537c-3.221,0-4.968-2.058-4.968-6.756c0-8.204,4.258-16.299,13.964-16.299
	c2.56,0,4.927,0.265,6.999,0.663C241.172,491.146,240.373,495.307,239.426,500.635 M235.892,481.208
	c-6.627,0-9.226,6.844-9.226,12.36c0,2.904,0.894,4.075,2.282,4.075c4.217,0,8.779-8.922,9.808-14.249l0.318-1.787
	C238.175,481.377,237.145,481.208,235.892,481.208z"/>
<path class="st0" d="M264.6,500.635h-3.94l2.728-14.242c0.677-3.492,0.04-5.016-1.977-5.016c-4.115,0-8.684,8.733-9.713,14.243
	l-0.948,5.016h-3.927l2.241-11.602c0.177-1.023,1.787-9.667,1.964-10.654h3.898c-0.265,1.476-0.894,4.033-2.47,8.779h0.095
	c2.112-4.704,5.639-9.226,10.301-9.226c4.123,0,5.503,2.91,4.664,7.569L264.6,500.635"/>
<path class="st0" d="M290.132,492.58c-0.149,0.758-1.353,7.25-1.482,8.055h-3.94c0.353-1.923,1.204-4.874,2.552-9.043l-0.088-0.047
	c-1.618,3.445-4.976,9.537-10.389,9.537c-3.23,0-4.976-2.058-4.976-6.756c0-8.203,4.251-16.299,13.971-16.299
	c1.125,0,2.024,0.081,3.134,0.265l1.928-10.323h3.988L290.132,492.58 M285.109,481.208c-6.633,0-9.233,6.844-9.233,12.36
	c0,2.904,0.908,4.075,2.289,4.075c4.217,0,8.786-8.922,9.808-14.249l0.311-1.787C287.391,481.377,286.362,481.208,285.109,481.208z"
	/>
</svg>
