<?xml version="1.0" encoding="utf-8"?>
<!-- Generator: Adobe Illustrator 19.1.0, SVG Export Plug-In . SVG Version: 6.00 Build 0)  -->
<svg version="1.1" id="Layer_1" xmlns="http://www.w3.org/2000/svg" xmlns:xlink="http://www.w3.org/1999/xlink" x="0px" y="0px"
	 width="682.466px" height="299.985px" viewBox="0 0 682.466 299.985" style="enable-background:new 0 0 682.466 299.985;"
	 xml:space="preserve">
<style type="text/css">
	.Arched_x0020_Green{fill:url(#SVGID_1_);stroke:#FFFFFF;stroke-width:0.25;stroke-miterlimit:1;}
	.st0{display:none;}
	.st1{display:inline;}
	.st2{fill:#003876;}
	.st3{display:inline;fill:#003876;}
	.st4{fill:#00529B;}
	.st5{fill:#FFFFFF;}
</style>
<linearGradient id="SVGID_1_" gradientUnits="userSpaceOnUse" x1="-82.9839" y1="444.8063" x2="-82.2768" y2="444.0992">
	<stop  offset="0" style="stop-color:#20AC4B"/>
	<stop  offset="0.9831" style="stop-color:#19361A"/>
</linearGradient>
<g class="st0">
	<g class="st1">
		<path class="st2" d="M93.292,69.298C76.817,75.2,71.159,91.196,71.159,91.196c-2.218,5.903-8.121,10.328-14.759,10.328H25.159
			c-8.612,0-15.739-7.13-15.739-15.742c0-8.608,5.902-15.495,15.739-15.495l25.091,0.247L14.094,34.38
			c-6.147-6.16-6.147-15.996,0-22.125c6.151-6.151,15.987-6.151,22.133,0L71.895,47.9V23.307c0-8.59,6.892-15.721,15.748-15.721
			c8.611,0,15.495,7.131,15.495,15.721V54.54C103.137,61.188,99.204,67.338,93.292,69.298 M87.643,201.614
			c-8.608,0-15.504-5.659-15.26-15.484l0.249-25.101l-36.155,36.151c-6.151,6.164-16.231,6.164-22.134,0
			c-6.15-6.138-6.15-16.231,0-22.129l35.419-35.664H25.403c-8.856,0-15.739-7.14-15.739-15.725c0-8.608,6.882-15.739,15.739-15.739
			h31.241c6.639,0,12.545,3.934,14.759,9.836c5.658,16.706,21.646,22.364,21.646,22.364c6.155,2.212,10.333,7.871,10.333,14.758
			v31.248C103.381,194.732,96.498,201.614,87.643,201.614z M188.22,139.139l-25.087-0.244l36.155,36.155
			c6.152,6.146,6.152,15.991,0,22.129c-6.146,6.164-15.981,6.164-22.132,0l-35.673-35.655v24.605c0,9.338-7.13,15.733-15.742,15.733
			c-8.608,0-15.739-7.131-15.739-15.733v-31.248c0-6.643,4.178-12.789,10.084-14.758c16.484-5.659,22.143-21.871,22.143-21.871
			c2.204-5.902,8.106-10.33,14.758-10.33h31.233c8.608,0,15.748,7.131,15.748,15.739
			C203.967,132.247,197.563,139.139,188.22,139.139z M188.463,101.277H157.23c-6.638,0-12.798-3.934-14.758-9.836
			c-5.659-16.484-21.899-22.387-21.899-22.387c-5.903-2.208-10.323-7.866-10.323-14.758V23.063c0-8.595,7.126-15.478,15.737-15.478
			c8.608,0,15.495,6.395,15.495,15.478l-0.239,25.081l36.155-36.137c6.152-6.146,15.986-6.146,22.133,0
			c6.151,6.133,6.151,16.213,0,22.373L163.87,69.791h24.594c8.608,0,15.747,7.139,15.747,15.747
			C204.211,94.146,197.072,101.277,188.463,101.277z"/>
	</g>
	<g class="st1">
		<path class="st2" d="M350.269,201.126c-11.561-23.369-32.439-60.27-44.735-79.432h-9.845v79.432h-36.892V9.059h60.749
			c40.071,0,63.939,19.161,63.939,57.535c0,26.319-18.946,42.558-38.866,49.197c12.789,17.446,37.384,60.244,49.676,85.335H350.269
			 M314.633,38.557h-18.944v54.844h14.758c19.925,0,34.413-8.6,34.413-27.3C344.86,49.627,334.287,38.557,314.633,38.557z
			 M471.512,201.126h-61.96V9.059h65.162c37.401,0,61.986,18.181,61.986,50.159c0,22.636-15.005,35.42-29.277,41.079
			c19.682,5.167,35.673,18.692,35.673,44.014C543.096,177.757,517.26,201.126,471.512,201.126z M469.543,38.31h-22.847v49.934
			h21.134c15.983,0,29.757-8.608,29.757-25.828C497.587,46.175,487.752,38.31,469.543,38.31z M469.303,116.78h-22.606v55.068h23.84
			c18.697,0,33.206-7.369,33.206-27.796C503.743,125.392,490.218,116.78,469.303,116.78z M601.375,202.839
			c-16.735,0-37.88-2.697-48.443-5.899l8.373-34.438c7.602,3.451,24.577,8.869,40.07,8.869c18.688,0,32.711-8.124,32.711-24.612
			c0-14.014-8.613-21.366-32.711-30.723c-24.595-9.587-44.993-21.397-44.993-56.33c0-34.182,27.033-53.108,68.115-53.108
			c17.455,0,35.176,3.45,45.747,6.891l-8.114,33.433c-7.14-3.934-20.913-8.855-37.633-8.855c-19.929,0-28.781,7.627-28.781,20.661
			c0,13.282,9.837,18.204,31.228,27.547c29.526,12.542,47.975,25.096,47.975,58.037C674.919,180.71,645.891,202.839,601.375,202.839
			z"/>
	</g>
	<polyline class="st3" points="37.057,241.252 25.912,241.252 19.163,276.311 13.943,276.311 20.626,241.252 9.42,241.252 
		10.245,236.727 37.881,236.727 37.057,241.252 	"/>
	<path class="st3" d="M59.589,276.311h-5.158l3.578-18.661c0.878-4.576,0.053-6.573-2.581-6.573
		c-5.406,0-11.388,11.443-12.745,18.662l-1.224,6.572h-5.167l8.155-42.804h5.167l-2.643,13.642
		c-0.409,2.289-1.118,5.107-3.287,11.503h0.116c2.762-6.163,7.396-12.089,13.499-12.089c5.401,0,7.22,3.813,6.102,9.917
		L59.589,276.311"/>
	<path class="st3" d="M74.964,263.467c-0.173,0.878-0.288,2.342-0.288,3.406c0,4.505,1.578,5.676,6.275,5.676
		c2.758,0,5.693-0.629,8.164-1.631l0.172,4.106c-2.944,1.18-6.341,1.817-10.155,1.817c-6.691,0-9.8-2.873-9.8-9.444
		c0-11.326,6.342-20.773,15.961-20.773c6.221,0,8.571,3.166,8.571,6.626C93.864,259.521,87.461,263.008,74.964,263.467
		 M84.71,250.609c-4.643,0-7.747,4.061-9.104,8.993c9.037-0.355,13.034-2.184,13.034-5.695
		C88.641,251.788,87.052,250.609,84.71,250.609z"/>
	<path class="st3" d="M125.08,258.13c0.815,1.392,1.524,2.695,2.341,4.167l7.786,14.015h-6.341l-9.366-17.773h-0.762l-3.339,17.773
		h-5.225l7.512-39.584c2.697-0.167,5.512-0.222,9.446-0.222c8.075,0,11.707,3.22,11.707,8.675
		C138.84,252.736,132.326,257.296,125.08,258.13 M126.303,240.896c-1.76,0-3.105,0.062-4.159,0.115l-2.585,13.472
		c0.643,0.062,1.707,0.115,3.171,0.115c5.902,0,10.531-3.102,10.531-8.586C133.261,242.537,131.207,240.896,126.303,240.896z"/>
	<path class="st3" d="M151.11,276.842c-7.338,0-10.683-3.697-10.683-10.377c0-11.627,7.394-19.84,16.892-19.84
		c7.695,0,10.866,4.337,10.866,10.5C168.185,269.163,159.91,276.842,151.11,276.842 M156.503,251.077
		c-6.395,0-10.679,7.168-10.679,14.493c0,4.355,1.761,6.75,6.155,6.75c5.695,0,10.683-6.093,10.683-14.6
		C162.662,253.427,160.725,251.077,156.503,251.077z"/>
	<path class="st3" d="M177.448,285.934c-3.517,3.521-7.038,5.286-10.501,5.286c-1.458,0-2.931-0.115-4.101-0.407l0.869-4.764
		c1.18,0.425,2.416,0.594,3.708,0.594c2.052,0,4.456-1.233,6.448-3.343c2.287-2.467,3.294-5.109,3.294-9.331
		c0-7.742-1.653-17.366-4.284-26.82h5.868c1.934,7.574,3.277,16.674,3.277,22.892c0,1.056-0.172,2.457-0.399,3.627h0.052
		c4.634-8.151,8.622-16.479,13.208-27.655l4.869,1.438C192.007,265.456,184.73,278.723,177.448,285.934"/>
	<path class="st3" d="M222.114,276.311h-5.233c0.536-2.52,1.646-6.386,3.406-11.849l-0.12-0.062
		c-2.106,4.514-6.509,12.496-13.61,12.496c-4.225,0-6.514-2.696-6.514-8.852c0-10.749,5.579-21.357,18.31-21.357
		c3.345,0,6.458,0.347,9.154,0.869C224.393,263.877,223.336,269.33,222.114,276.311 M217.471,250.856
		c-8.683,0-12.089,8.967-12.089,16.195c0,3.805,1.174,5.34,2.999,5.34c5.512,0,11.498-11.691,12.85-18.671l0.409-2.342
		C220.458,251.077,219.115,250.856,217.471,250.856z"/>
	<polyline class="st3" points="236.952,276.311 231.795,276.311 239.95,233.508 245.116,233.508 236.952,276.311 	"/>
	<path class="st3" d="M280.88,255.361v0.071c3.753,0.815,5.925,3.868,5.925,7.326c0,7.397-6.107,13.73-17.229,13.73
		c-2.461,0-6.279-0.115-10.026-0.178l7.507-39.584c2.815-0.053,6.542-0.167,11.064-0.167c7.566,0,10.972,2.927,10.972,7.627
		C289.095,250.147,285.222,253.837,280.88,255.361 M272.726,257.889c-1.524,0-3.495,0-4.431,0.062l-2.643,13.854
		c0.989,0.169,2.643,0.284,4.812,0.284c7.011,0,10.709-4.115,10.709-8.86C281.173,259.717,278.53,257.889,272.726,257.889z
		 M276.713,240.896c-1.882,0-3.58,0.062-5.22,0.115l-2.444,12.771c1.117,0.054,2.035,0.054,3.38,0.054
		c6.457,0,11.033-3.052,11.033-8.47C283.462,242.723,282.057,240.896,276.713,240.896z"/>
	<path class="st3" d="M314.323,276.311h-5.225c0.528-2.52,1.646-6.386,3.406-11.849l-0.115-0.062
		c-2.106,4.514-6.51,12.496-13.615,12.496c-4.221,0-6.509-2.696-6.509-8.852c0-10.749,5.573-21.357,18.305-21.357
		c3.345,0,6.456,0.347,9.158,0.869C316.611,263.877,315.56,269.33,314.323,276.311 M309.692,250.856
		c-8.683,0-12.089,8.967-12.089,16.195c0,3.805,1.171,5.34,2.99,5.34c5.521,0,11.504-11.691,12.86-18.671l0.408-2.342
		C312.691,251.077,311.333,250.856,309.692,250.856z"/>
	<path class="st3" d="M347.308,276.311h-5.168l3.58-18.661c0.887-4.576,0.062-6.573-2.581-6.573
		c-5.392,0-11.38,11.443-12.732,18.662l-1.233,6.572h-5.17l2.937-15.202c0.244-1.34,2.35-12.666,2.585-13.96h5.103
		c-0.351,1.934-1.171,5.285-3.223,11.503h0.12c2.752-6.163,7.383-12.089,13.493-12.089c5.403,0,7.211,3.813,6.112,9.917
		L347.308,276.311"/>
	<polyline class="st3" points="370.421,260.365 379.237,276.311 372.895,276.311 365.144,260.887 362.217,276.311 357.046,276.311 
		365.197,233.508 370.367,233.508 365.382,259.602 379.05,245.712 382.864,248.675 370.421,260.365 	"/>
	<path class="st3" d="M407.157,276.842c-7.335,0-10.678-3.697-10.678-10.377c0-11.627,7.396-19.84,16.904-19.84
		c7.654,0,10.82,4.337,10.82,10.5C424.204,269.163,415.937,276.842,407.157,276.842 M412.559,251.077
		c-6.396,0-10.689,7.168-10.689,14.493c0,4.355,1.765,6.75,6.173,6.75c5.695,0,10.653-6.093,10.653-14.6
		C418.697,253.427,416.754,251.077,412.559,251.077z"/>
	<path class="st3" d="M452.789,238.032c-1.295-0.355-2.882-0.594-4.115-0.594c-4.222,0-6.571,2.287-7.513,7.742l-0.355,1.969h7.931
		l-0.878,4.114h-7.868l-5.047,26.52c-1.816,9.57-6.278,13.438-13.383,13.438c-1.693,0-3.459-0.169-5.039-0.525l1.297-4.46
		c1.348,0.407,2.927,0.577,4.098,0.577c4.167,0,6.518-2.103,7.805-8.915l5.116-26.635h-5.934l0.878-4.114h5.819l0.407-2.023
		c1.402-7.98,5.624-11.972,13.197-11.972c1.649,0,3.229,0.176,4.869,0.531L452.789,238.032"/>
	<path class="st3" d="M484.941,241.545c-1.934-0.702-4.054-0.941-5.526-0.941c-5.862,0-8.496,3.352-8.496,6.493
		c0,7.149,12.089,7.387,12.089,16.78c0,7.335-6.457,13.02-15.673,13.02c-2.109,0-4.576-0.229-6.509-0.878l0.993-5.162
		c1.641,0.7,3.991,1.286,5.986,1.286c6.111,0,9.569-2.979,9.569-7.387c0-6.866-12.035-6.928-12.035-16.437
		c0-6.474,5.108-12.169,14.617-12.169c1.995,0,3.76,0.117,5.986,0.577L484.941,241.545"/>
	<path class="st3" d="M510.058,252.141c-1.588-0.709-3.281-1.116-5.349-1.116c-7.387,0-10.855,8.336-10.855,14.962
		c0,3.051,1.002,6.155,6.111,6.155c2.296,0,4.638-0.523,6.394-1.338v4.451c-2.109,0.825-4.93,1.534-7.857,1.534
		c-7.575,0-10.155-4.114-10.155-9.632c0-11.14,6.27-20.471,16.727-20.471c2.396,0,4.338,0.347,6.154,0.869L510.058,252.141"/>
	<path class="st3" d="M523.148,276.842c-7.334,0-10.687-3.697-10.687-10.377c0-11.627,7.398-19.84,16.897-19.84
		c7.69,0,10.855,4.337,10.855,10.5C540.213,269.163,531.948,276.842,523.148,276.842 M528.542,251.077
		c-6.404,0-10.68,7.168-10.68,14.493c0,4.355,1.756,6.75,6.155,6.75c5.695,0,10.68-6.093,10.68-14.6
		C534.698,253.427,532.763,251.077,528.542,251.077z"/>
	<path class="st3" d="M563.14,251.263h-7.902l-2.873,15.257c-0.824,4.522-0.239,5.747,2.643,5.747c1.633,0,2.847-0.178,4.026-0.462
		l-0.362,4.399c-1.704,0.345-3.727,0.585-5.429,0.585c-5.978,0-7.504-2.82-6.271-9.454l3.104-16.072h-5.925l0.824-4.114h5.862
		l1.819-9.419l5.428-1.225l-2.022,10.644h7.893L563.14,251.263"/>
	<polyline class="st3" points="570.643,276.311 565.492,276.311 573.633,233.508 578.804,233.508 570.643,276.311 	"/>
	<path class="st3" d="M602.387,276.311h-5.225c0.533-2.52,1.65-6.386,3.406-11.849l-0.115-0.062
		c-2.111,4.514-6.511,12.496-13.615,12.496c-4.221,0-6.509-2.696-6.509-8.852c0-10.749,5.579-21.357,18.297-21.357
		c3.354,0,6.456,0.347,9.171,0.869C604.675,263.877,603.627,269.33,602.387,276.311 M597.756,250.856
		c-8.683,0-12.089,8.967-12.089,16.195c0,3.805,1.171,5.34,2.99,5.34c5.526,0,11.503-11.691,12.852-18.671l0.417-2.342
		C600.747,251.077,599.398,250.856,597.756,250.856z"/>
	<path class="st3" d="M635.372,276.311h-5.162l3.575-18.661c0.887-4.576,0.053-6.573-2.591-6.573
		c-5.392,0-11.379,11.443-12.727,18.662l-1.242,6.572h-5.145l2.936-15.202c0.232-1.34,2.342-12.666,2.573-13.96h5.108
		c-0.347,1.934-1.171,5.285-3.237,11.503h0.124c2.767-6.163,7.389-12.089,13.498-12.089c5.402,0,7.211,3.813,6.111,9.917
		L635.372,276.311"/>
	<path class="st3" d="M668.827,265.757c-0.195,0.993-1.773,9.499-1.942,10.555h-5.162c0.462-2.52,1.578-6.386,3.344-11.849
		l-0.115-0.062c-2.12,4.514-6.52,12.496-13.613,12.496c-4.232,0-6.52-2.696-6.52-8.852c0-10.749,5.57-21.357,18.306-21.357
		c1.474,0,2.652,0.106,4.107,0.347l2.526-13.526h5.225L668.827,265.757 M662.245,250.856c-8.691,0-12.098,8.967-12.098,16.195
		c0,3.805,1.19,5.34,2.999,5.34c5.525,0,11.512-11.691,12.852-18.671l0.407-2.342C665.235,251.077,663.886,250.856,662.245,250.856z
		"/>
</g>
<g>
	<polyline class="st4" points="268.452,182.456 281.087,182.456 281.087,102.754 267.789,102.754 267.789,182.456 268.452,182.456 	
		"/>
	<polyline class="st4" points="294.892,182.456 307.532,182.456 307.532,102.754 294.239,102.754 294.239,182.456 294.892,182.456 	
		"/>
	<path class="st4" d="M506.465,206.714c8.207,1.384,15.549-1.958,20.41-6.537c6.829-6.459,11.188-14.886,18.461-34.575
		l13.941-37.206l0.292-0.794h-13.366l-0.147,0.356l-12.568,36.913l-13.366-36.913l-0.151-0.356h-14.599l0.287,0.794l20.853,52.239
		c-1.671,4.656-4.36,8.572-6.975,11.193c-3.342,3.195-7.989,4.647-13.074,3.78V206.714"/>
	<path class="st4" d="M478.124,126.223c-16.416,0-27.678,11.838-27.678,28.769c0,17.215,11.116,28.838,27.678,28.838
		c16.562,0,27.61-11.623,27.61-28.838C505.734,138.06,494.472,126.223,478.124,126.223z M478.056,173.156
		c-8.281,0-14.457-7.199-14.457-18.237c0-11.043,6.176-18.232,14.457-18.232c8.427,0,14.526,7.19,14.526,18.232
		C492.582,165.958,486.41,173.156,478.056,173.156"/>
	<path class="st4" d="M231.469,126.072c-16.864,0-27.683,11.627-27.683,28.774c0,17.215,10.819,28.847,27.683,28.847
		c16.855,0,27.61-11.632,27.61-28.847C259.079,137.699,248.324,126.072,231.469,126.072z M231.392,173.006
		c-8.281,0-14.457-7.263-14.457-18.227c0-11.049,6.176-18.238,14.457-18.238c8.427,0,14.531,7.19,14.531,18.238
		C245.923,165.743,239.745,173.006,231.392,173.006"/>
	<rect x="358.899" y="140.749" class="st4" width="26.084" height="10.025"/>
	<path class="st4" d="M194.77,159.571c2.767,8.71,4.219,17.434,5.241,22.661l-14.175,0.078c-0.799-4.505-1.597-10.755-4.062-18.31
		c-2.835-9.008-6.396-13.152-14.827-13.152h-6.465v31.385h-13.371v-76.355c2.835,0,6.176-0.219,9.742-0.219c3.484,0,7.19,0,10.746,0
		c10.824,0,17.945,2.251,22.894,6.542c4.136,3.555,6.391,8.939,6.391,15.11c0,10.098-5.884,15.915-12.421,18.457
		C189.257,148.017,192.306,151.943,194.77,159.571z M168.983,116.627c-1.818,0-3.269,0-4.428,0c-1.889,0-3.127,0.152-4.072,0.152
		v23.971h7.774c9.153,0,15.403-4.725,15.403-12.207C183.66,120.768,178.569,116.705,168.983,116.627"/>
	<path class="st4" d="M442.087,159.571c2.762,8.71,4.214,17.434,5.232,22.661l-14.166,0.078c-0.798-4.505-1.597-10.755-4.072-18.31
		c-2.835-9.008-6.391-13.152-14.817-13.152h-6.469v31.385h-13.366v-76.355c2.835,0,6.176-0.219,9.733-0.219c3.493,0,7.2,0,10.755,0
		c10.824,0,17.945,2.251,22.885,6.542c4.145,3.555,6.396,8.939,6.396,15.11c0,10.098-5.885,15.915-12.426,18.457
		C436.574,148.017,439.618,151.943,442.087,159.571z M416.295,116.627c-1.817,0-3.268,0-4.428,0c-1.889,0-3.126,0.152-4.072,0.152
		v23.971h7.779c9.153,0,15.398-4.725,15.398-12.207C430.972,120.768,425.886,116.705,416.295,116.627"/>
	<path class="st4" d="M319.452,169.956c3.049,1.891,8.641,3.707,13.513,3.707c6.536,0,9.152-2.109,9.152-6.103
		c0-4.072-2.109-5.811-9.079-8.354c-10.244-3.638-14.75-9.669-14.75-16.061c0-9.226,7.633-16.854,19.908-16.854
		c5.811,0,10.897,1.744,14.018,3.555l-2.611,8.866c-2.981-1.374-6.469-2.611-11.408-2.543c-5.086,0.078-7.122,2.397-7.122,5.67
		c0,3.78,3.853,5.962,8.793,7.628c9.805,3.269,15.037,8.793,15.037,17.078c-0.069,9.801-8.281,16.991-22.086,16.991
		c-6.245,0-12.207-1.306-15.982-4.131L319.452,169.956"/>
	<path class="st4" d="M602.289,180.42c-2.756,1.315-8.5,2.981-15.475,2.981c-15.905-0.147-27.751-11.048-27.751-27.902
		c0-16.421,10.677-29.134,29.865-29.134c5.441,0,10.531,1.452,13.508,2.83l-2.328,9.665c-2.318-1.16-5.738-1.89-10.892-1.89
		c-11.262,0-16.567,7.414-16.493,17.95c0,11.769,6.469,18.306,16.421,18.306c5.085,0,8.646-1.164,11.335-2.323L602.289,180.42"/>
	<path class="st4" d="M618.057,158.042c0.365,11.257,7.122,15.256,16.421,15.256c6.61,0,11.116-1.091,15.042-2.611l1.958,9.157
		c-4.214,1.813-10.532,3.849-18.744,3.849c-17.293,0-27.61-11.409-27.61-27.975c0-15.554,9.373-29.281,26.304-29.281
		c17.731,0,23.104,14.964,23.104,26.08c0,2.401,0,4.218-0.291,5.451L618.057,158.042z M642.106,148.669
		c0.079-5.445-1.529-12.791-11.48-12.791c-9.153,0-11.838,6.762-12.495,12.791H642.106"/>
	<path class="st5" d="M13.793,81.536c0-4.721,3.853-8.573,8.578-8.573h66.043c4.794,0,8.641,3.853,8.641,8.573v124.379
		c0,4.735-3.848,8.573-8.641,8.573H22.372c-4.726,0-8.578-3.839-8.578-8.573V81.536"/>
	<path class="st4" d="M17.354,96.208V81.536c0-2.757,2.256-5.013,5.018-5.013h66.043c2.83,0,5.081,2.256,5.081,5.013v14.672H17.354"
		/>
	<rect x="17.354" y="99.773" class="st4" width="76.141" height="87.914"/>
	<path class="st4" d="M13.793,81.536c0-4.721,3.853-8.573,8.578-8.573h66.043c4.794,0,8.641,3.853,8.641,8.573v124.379
		c0,4.735-3.848,8.573-8.641,8.573H22.372c-4.726,0-8.578-3.839-8.578-8.573V81.536z M101.415,81.536
		c0-7.19-5.811-13.007-13.001-13.007H22.372c-7.195,0-13.006,5.817-13.006,13.007v124.379c0,7.2,5.811,13.006,13.006,13.006h66.043
		c7.19,0,13.001-5.806,13.001-13.006V81.536"/>
	<path class="st4" d="M17.354,191.243v14.672c0,2.767,2.256,5.018,5.018,5.018h66.043c2.83,0,5.081-2.251,5.081-5.018v-14.672
		H17.354"/>
	<path class="st5" d="M49.982,173.663v-19.548c1.884-0.068,3.697-0.146,5.514-0.282c-0.648-1.529-1.306-3.059-2.105-4.51
		c-1.09,0.146-2.25,0.146-3.409,0.214v-4.063c-2.548,0.576-5.31,1.014-8.14,1.306v26.884c0,5.958-2.761,7.555-4.437,8.646h17.005
		C52.811,181.218,49.982,179.621,49.982,173.663"/>
	<path class="st5" d="M89.501,182.232c-1.379-1.306-3.128-3.337-3.994-7.335c-1.603-7.336-4.944-17.868-11.988-25.72
		c6.897-3.78,11.116-9.733,11.116-17.068c0.068-5.231-2.621-10.755-7.414-14.029c-2.036-1.3-4.432-2.25-7.263-2.834
		c1.018,2.182,1.671,4.51,1.817,6.834c2.981,2.323,4.579,5.88,4.579,10.167c0,5.455-2.766,11.847-12.426,15.12
		c0.799,1.519,1.593,3.128,2.251,4.647c0.507-0.146,1.018-0.292,1.524-0.433c4.501,5.226,8.134,13.439,9.226,21.067
		c0.799,5.524-1.159,8.28-2.464,9.586H89.501"/>
	<path class="st5" d="M72.573,173.444c-1.452-1.305-3.195-3.341-3.999-7.335c-1.602-7.34-4.793-17.658-11.189-24.989
		c0.292-0.151,0.512-0.224,0.804-0.37c7.263-3.702,11.696-9.878,11.696-17.438c0.073-5.3-2.616-10.746-7.414-14.019
		c-3.775-2.543-8.861-3.565-15.324-3.565H22.659c1.671,1.095,4.427,2.699,4.427,8.65v50.421c0,6.036-2.756,7.556-4.427,8.646h17
		c-1.603-1.09-4.433-2.611-4.433-8.646V145.26c5.958,0,11.554-0.731,16.275-1.968c4.292,5.159,7.487,13.151,8.505,20.488
		c0.721,5.519-1.169,8.359-2.474,9.664H72.573z M35.226,140.749v-30.513H46.78c4.214,0.073,7.336,0.945,9.81,2.689
		c3.264,2.319,5.008,6.031,5.008,10.464C61.599,130.871,56.44,140.389,35.226,140.749"/>
	<path class="st5" d="M49.982,136.389v-17.22h9.152c-0.652-1.889-1.822-3.415-3.415-4.579H37.404
		c1.676,1.091,4.437,2.621,4.437,8.651v15.189C44.891,137.992,47.653,137.339,49.982,136.389"/>
	<path class="st5" d="M66.616,201.122c0,2.474,1.452,4.355,3.994,4.355c1.818,0,3.483-0.507,4.214-1.374l-0.439,2.835
		c-0.653,0.282-1.812,0.652-3.702,0.652c-4.067,0-6.901-2.396-6.901-6.468c0-2.173,0.872-3.849,2.177-4.94
		c1.164-1.013,2.762-1.597,4.725-1.597c1.89,0,3.05,0.36,3.702,0.721v2.699c-0.798-0.877-1.957-1.316-3.775-1.316
		C68.067,196.689,66.616,198.579,66.616,201.122"/>
	<path class="st5" d="M33.702,204.181c-0.585-1.169-1.091-2.114-1.963-2.474c1.89-0.361,2.83-1.53,2.908-3.128
		c0-1.666-0.725-2.903-2.036-3.41c-0.798-0.292-1.889-0.292-3.483-0.292H22.8c0.59,0.36,0.946,1.597,0.946,2.757v6.975
		c0,1.023-0.356,2.328-0.946,2.756h4.506c-0.575-0.428-0.94-1.734-0.94-2.756v-2.251h1.884c1.019,0,1.598,0.438,2.036,1.159
		c0.653,1.091,1.164,2.621,1.963,3.78l3.702,0.068C34.793,206.499,34.286,205.408,33.702,204.181z M31.885,198.647
		c0,1.237-1.019,1.754-2.616,1.754h-2.903v-3.488h2.903C30.866,196.913,31.885,197.351,31.885,198.647"/>
	<path class="st5" d="M40.746,204.395c-0.721-0.652-1.086-1.744-1.086-3.273c0-1.52,0.365-2.612,1.086-3.342
		c0.652-0.652,1.529-1.014,2.688-1.014c1.091,0,1.968,0.361,2.621,1.014c0.725,0.73,1.091,1.822,1.091,3.342
		c0,1.529-0.366,2.621-1.091,3.273c-0.652,0.652-1.529,1.081-2.621,1.081C42.275,205.477,41.398,205.048,40.746,204.395z
		 M43.366,207.659c1.744,0,3.195-0.506,4.287-1.452c1.305-1.09,2.25-2.756,2.25-5.085c0-2.319-0.945-3.994-2.25-5.164
		c-1.091-0.867-2.543-1.374-4.287-1.374c-1.676,0-3.128,0.507-4.219,1.374c-1.305,1.169-2.251,2.844-2.251,5.164
		c0,2.328,0.946,3.994,2.251,5.085C40.239,207.153,41.69,207.659,43.366,207.659"/>
	<path class="st5" d="M59.64,194.877c0.292,0.214,0.434,0.429,0.365,0.73c0,0.282-0.151,0.721-0.438,1.159l-2.47,3.556l-2.474-3.634
		c-0.287-0.438-0.58-0.867-0.507-1.237c0.073-0.214,0.151-0.429,0.438-0.575h-5.012c0.872,0.36,1.306,1.013,1.958,1.958l4.067,5.747
		v2.027c0,1.023-0.36,2.328-0.945,2.689h4.51c-0.585-0.36-0.945-1.666-0.945-2.689v-2.027l3.702-5.231
		c0.58-0.73,1.384-2.045,2.251-2.474H59.64"/>
	<path class="st5" d="M83.763,205.33h-3.2v-3.41h4.797l0.287-1.889h-5.085v-3.118h2.835c1.597,0,2.908,0.068,3.56,0.721v-2.757
		h-9.957c0.585,0.429,0.951,1.744,0.951,2.757v6.975c0,1.09-0.366,2.328-0.951,2.756h10.03l0.434-3.049
		C86.738,205.262,85.36,205.33,83.763,205.33"/>
	<path class="st5" d="M77.445,89.018c0.282,0.438,0.94,0.945,1.374,1.168c1.237,0.653,2.328,0.868,3.488,0.868
		c1.817,0,2.908-0.799,2.908-1.963c0-1.379-1.379-1.593-3.488-1.89c-2.685-0.355-4.141-1.592-4.141-3.775
		c0.074-2.182,2.11-3.848,5.091-3.848c2.026,0,3.41,0.433,4.282,0.867v2.835c-0.287-0.507-0.94-0.872-1.598-1.159
		c-0.872-0.292-1.739-0.439-2.684-0.439c-1.461,0-2.328,0.584-2.328,1.306c0,1.237,1.159,1.383,3.702,1.889
		c2.543,0.517,4.072,1.598,3.999,3.858c-0.074,2.612-2.11,4.355-5.743,4.355c-1.598,0-3.634-0.292-4.861-0.946V89.018"/>
	<path class="st5" d="M34.208,89.603c-0.652-1.238-1.159-2.183-2.104-2.617c2.036-0.433,3.049-1.592,3.049-3.341
		c0-1.671-0.725-2.977-2.104-3.488c-0.877-0.365-1.963-0.365-3.634-0.365h-6.688c0.662,0.438,1.019,1.744,1.019,2.908v7.335
		c0,1.096-0.356,2.475-1.019,2.84h4.798c-0.653-0.365-1.019-1.744-1.019-2.84v-2.323h2.036c1.019,0,1.598,0.36,2.036,1.164
		c0.726,1.159,1.233,2.762,2.105,3.999h3.853C35.373,92.077,34.793,90.84,34.208,89.603z M32.318,83.786
		c0,1.316-1.085,1.823-2.756,1.823h-3.055v-3.712h3.055C31.232,81.896,32.318,82.408,32.318,83.786"/>
	<path class="st5" d="M41.623,89.816c-0.799-0.725-1.16-1.884-1.16-3.478c0-1.529,0.361-2.694,1.16-3.498
		c0.652-0.652,1.597-1.081,2.756-1.081c1.164,0,2.11,0.429,2.767,1.081c0.794,0.804,1.232,1.968,1.232,3.498
		c0,1.593-0.438,2.752-1.232,3.478c-0.657,0.653-1.603,1.091-2.767,1.091C43.22,90.908,42.275,90.47,41.623,89.816z M44.379,93.236
		c1.822,0,3.347-0.512,4.506-1.529c1.384-1.159,2.328-2.903,2.328-5.368c0-2.406-0.945-4.218-2.328-5.378
		c-1.159-0.95-2.685-1.461-4.506-1.461c-1.812,0-3.341,0.511-4.5,1.461c-1.379,1.16-2.328,2.972-2.328,5.378
		c0,2.465,0.95,4.209,2.328,5.368C41.038,92.724,42.635,93.236,44.379,93.236"/>
	<path class="st5" d="M63.275,89.534c-0.731,0.936-2.256,1.228-3.927,1.228h-2.543V82.7c0-1.086,0.366-2.47,0.946-2.908H53.03
		c0.648,0.438,1.014,1.822,1.014,2.908v7.335c0,1.164-0.365,2.401-1.014,2.84h9.805L63.275,89.534"/>
	<path class="st5" d="M75.116,89.534c-0.731,0.936-2.251,1.306-3.927,1.228h-2.616V82.7c0-1.086,0.365-2.47,1.019-2.908h-4.721
		c0.648,0.438,1.014,1.822,1.014,2.908v7.335c0,1.164-0.365,2.475-1.014,2.908h9.738L75.116,89.534"/>
	<path class="st4" d="M659.428,125.931c0-4.033,3.044-7.083,6.946-7.083c3.853,0,6.897,3.05,6.897,7.083
		c0,4.101-3.045,7.121-6.897,7.121C662.472,133.052,659.428,130.033,659.428,125.931z M666.374,134.475
		c4.642,0,8.607-3.604,8.607-8.544c0-4.891-3.965-8.496-8.607-8.496c-4.692,0-8.661,3.604-8.661,8.496
		C657.713,130.871,661.683,134.475,666.374,134.475z M664.567,126.603h1.715l2.591,4.268h1.671l-2.795-4.331
		c1.442-0.18,2.547-0.95,2.547-2.704c0-1.938-1.149-2.796-3.473-2.796h-3.741v9.83h1.485V126.603z M664.567,125.347v-3.045h2.031
		c1.038,0,2.144,0.228,2.144,1.442c0,1.515-1.13,1.603-2.392,1.603H664.567z"/>
</g>
</svg>
