<?xml version="1.0" encoding="utf-8"?>
<!-- Generator: Adobe Illustrator 19.1.0, SVG Export Plug-In . SVG Version: 6.00 Build 0)  -->
<svg version="1.1" id="Layer_1" xmlns="http://www.w3.org/2000/svg" xmlns:xlink="http://www.w3.org/1999/xlink" x="0px" y="0px"
	 width="519px" height="108px" viewBox="0 0 519 108" style="enable-background:new 0 0 519 108;" xml:space="preserve">
<g>
	<path d="M19.786,8.409l19.137,47.955L58.329,8.409h11.428L38.698,82.806L8.357,8.409H19.786z"/>
	<path d="M71.218,15.804c0-1.763,0.642-3.286,1.927-4.571c1.284-1.284,2.823-1.927,4.616-1.927c1.822,0,3.376,0.643,4.661,1.927
		c1.285,1.255,1.927,2.794,1.927,4.616c0,1.823-0.643,3.376-1.927,4.661c-1.255,1.285-2.794,1.927-4.616,1.927
		c-1.823,0-3.376-0.642-4.661-1.927C71.86,19.226,71.218,17.657,71.218,15.804z M82.825,33.955v43.652H72.742V33.955H82.825z"/>
	<path d="M116.375,41.395l-8.336,4.437c-1.315-2.659-2.943-3.989-4.885-3.989c-0.927,0-1.719,0.306-2.375,0.918
		c-0.658,0.612-0.986,1.395-0.986,2.35c0,1.671,1.942,3.328,5.826,4.969c5.348,2.298,8.948,4.417,10.801,6.356
		c1.853,1.94,2.779,4.551,2.779,7.833c0,4.208-1.554,7.729-4.661,10.564c-3.018,2.687-6.663,4.029-10.936,4.029
		c-7.32,0-12.504-3.57-15.551-10.711l8.605-3.989c1.194,2.092,2.106,3.421,2.734,3.989c1.225,1.136,2.689,1.703,4.392,1.703
		c3.406,0,5.109-1.553,5.109-4.661c0-1.792-1.315-3.465-3.944-5.02c-1.016-0.508-2.032-1-3.047-1.479
		c-1.016-0.478-2.047-0.97-3.093-1.479c-2.928-1.434-4.99-2.868-6.185-4.302c-1.524-1.822-2.286-4.168-2.286-7.036
		c0-3.794,1.3-6.932,3.899-9.412c2.659-2.479,5.886-3.72,9.681-3.72C109.503,32.745,113.657,35.629,116.375,41.395z"/>
	<path d="M122.14,15.804c0-1.763,0.642-3.286,1.927-4.571c1.284-1.284,2.823-1.927,4.616-1.927c1.822,0,3.376,0.643,4.661,1.927
		c1.285,1.255,1.927,2.794,1.927,4.616c0,1.823-0.643,3.376-1.927,4.661c-1.255,1.285-2.794,1.927-4.616,1.927
		c-1.823,0-3.376-0.642-4.661-1.927C122.782,19.226,122.14,17.657,122.14,15.804z M133.747,33.955v43.652h-10.083V33.955H133.747z"
		/>
	<path d="M152.329,43.367v34.24h-10.084v-34.24h-4.302v-9.412h4.302v-16h10.084v16h7.843v9.412H152.329z"/>
	<path d="M161.005,55.468c0-6.304,2.256-11.667,6.768-16.089c4.511-4.422,10.009-6.633,16.493-6.633
		c6.513,0,12.041,2.226,16.583,6.678c4.482,4.453,6.723,9.92,6.723,16.403c0,6.543-2.256,12.026-6.768,16.448
		c-4.542,4.392-10.114,6.588-16.717,6.588c-6.543,0-12.026-2.241-16.448-6.723C163.216,67.718,161.005,62.161,161.005,55.468z
		 M171.313,55.647c0,4.363,1.166,7.813,3.496,10.353c2.39,2.57,5.542,3.854,9.456,3.854c3.944,0,7.096-1.27,9.457-3.81
		c2.36-2.539,3.541-5.931,3.541-10.173c0-4.242-1.181-7.634-3.541-10.174c-2.391-2.569-5.542-3.854-9.457-3.854
		c-3.854,0-6.977,1.285-9.367,3.854C172.508,48.268,171.313,51.584,171.313,55.647z"/>
	<path d="M213.647,33.955h10.083v3.899c1.853-1.942,3.496-3.272,4.93-3.989c1.463-0.747,3.197-1.121,5.199-1.121
		c2.659,0,5.438,0.867,8.336,2.6l-4.616,9.232c-1.912-1.374-3.78-2.062-5.602-2.062c-5.498,0-8.247,4.153-8.247,12.459v22.633
		h-10.083V33.955z"/>
	<path d="M240.072,72.588c0-1.673,0.612-3.122,1.837-4.347c1.225-1.225,2.689-1.837,4.392-1.837c1.703,0,3.167,0.612,4.392,1.837
		c1.225,1.226,1.838,2.689,1.838,4.392c0,1.733-0.613,3.212-1.838,4.437c-1.195,1.194-2.66,1.792-4.392,1.792
		c-1.763,0-3.242-0.598-4.437-1.792C240.669,75.875,240.072,74.38,240.072,72.588z"/>
</g>
<g>
	<path d="M294.268,23.601h-25.23v15.122h24.497v8.926h-24.497v21.032h25.23v8.926h-34.727V14.674h34.727V23.601z"/>
	<path d="M313.124,56.127l-14.266-18.219h10.923l8.845,11.576l9.008-11.576h11.25L324.21,56.127l16.997,21.48h-10.923
		l-11.658-14.836l-11.942,14.836h-11.209L313.124,56.127z"/>
	<path d="M352.399,99.21h-9.171V37.908h9.171v4.32c3.613-3.614,7.717-5.421,12.31-5.421c5.462,0,9.959,2.011,13.491,6.032
		c3.587,3.995,5.381,9.035,5.381,15.122c0,5.951-1.78,10.91-5.34,14.877c-3.533,3.94-7.989,5.91-13.369,5.91
		c-4.646,0-8.805-1.861-12.473-5.584V99.21z M374.206,58.002c0-3.804-1.033-6.902-3.098-9.293c-2.093-2.418-4.729-3.628-7.907-3.628
		c-3.37,0-6.101,1.169-8.193,3.505c-2.093,2.337-3.139,5.408-3.139,9.212c0,3.723,1.046,6.793,3.139,9.211
		c2.065,2.364,4.782,3.546,8.152,3.546c3.179,0,5.801-1.195,7.866-3.587C373.146,64.578,374.206,61.589,374.206,58.002z"/>
	<path d="M389.107,37.908h9.171v3.546c1.685-1.766,3.18-2.976,4.483-3.627c1.331-0.679,2.907-1.019,4.729-1.019
		c2.418,0,4.945,0.789,7.581,2.364l-4.198,8.396c-1.739-1.25-3.438-1.875-5.095-1.875c-5,0-7.5,3.777-7.5,11.332v20.583h-9.171
		V37.908z"/>
	<path d="M451.739,59.918h-28.451c0.245,3.261,1.305,5.856,3.18,7.785c1.875,1.902,4.28,2.854,7.215,2.854
		c2.282,0,4.171-0.543,5.665-1.63c1.468-1.086,3.139-3.098,5.014-6.033l7.744,4.321c-1.196,2.038-2.459,3.784-3.79,5.237
		c-1.332,1.454-2.759,2.649-4.28,3.587c-1.522,0.938-3.166,1.624-4.932,2.059c-1.767,0.434-3.683,0.652-5.747,0.652
		c-5.925,0-10.68-1.901-14.267-5.706c-3.586-3.832-5.38-8.913-5.38-15.244c0-6.277,1.738-11.358,5.218-15.244
		c3.505-3.832,8.151-5.747,13.939-5.747c5.842,0,10.461,1.861,13.858,5.584c3.369,3.696,5.054,8.818,5.054,15.366L451.739,59.918z
		 M442.323,52.418c-1.277-4.891-4.361-7.337-9.252-7.337c-1.115,0-2.161,0.17-3.139,0.51c-0.979,0.34-1.869,0.829-2.67,1.467
		c-0.802,0.639-1.488,1.406-2.059,2.303c-0.57,0.897-1.006,1.916-1.304,3.057H442.323z"/>
	<path d="M480.662,44.674l-7.582,4.035c-1.195-2.418-2.677-3.628-4.442-3.628c-0.843,0-1.562,0.278-2.16,0.835
		s-0.896,1.269-0.896,2.137c0,1.521,1.766,3.026,5.299,4.52c4.863,2.09,8.138,4.017,9.822,5.781s2.527,4.139,2.527,7.124
		c0,3.827-1.413,7.03-4.239,9.608c-2.744,2.443-6.06,3.664-9.945,3.664c-6.657,0-11.371-3.247-14.144-9.741l7.826-3.628
		c1.087,1.902,1.916,3.112,2.486,3.628c1.114,1.033,2.445,1.549,3.994,1.549c3.098,0,4.646-1.413,4.646-4.239
		c0-1.63-1.195-3.152-3.586-4.565c-0.925-0.462-1.849-0.91-2.772-1.345c-0.924-0.434-1.861-0.883-2.812-1.345
		c-2.663-1.305-4.538-2.609-5.624-3.913c-1.386-1.657-2.079-3.791-2.079-6.399c0-3.451,1.182-6.304,3.546-8.56
		c2.418-2.255,5.354-3.383,8.805-3.383C474.411,36.807,478.188,39.43,480.662,44.674z"/>
	<path d="M510.359,44.674l-7.581,4.035c-1.196-2.418-2.677-3.628-4.443-3.628c-0.842,0-1.562,0.278-2.16,0.835
		s-0.896,1.269-0.896,2.137c0,1.521,1.767,3.026,5.299,4.52c4.864,2.09,8.138,4.017,9.823,5.781
		c1.685,1.764,2.527,4.139,2.527,7.124c0,3.827-1.413,7.03-4.239,9.608c-2.745,2.443-6.06,3.664-9.945,3.664
		c-6.658,0-11.372-3.247-14.144-9.741l7.826-3.628c1.086,1.902,1.915,3.112,2.486,3.628c1.113,1.033,2.445,1.549,3.994,1.549
		c3.098,0,4.646-1.413,4.646-4.239c0-1.63-1.196-3.152-3.587-4.565c-0.924-0.462-1.849-0.91-2.771-1.345
		c-0.924-0.434-1.861-0.883-2.812-1.345c-2.663-1.305-4.538-2.609-5.625-3.913c-1.386-1.657-2.079-3.791-2.079-6.399
		c0-3.451,1.183-6.304,3.547-8.56c2.418-2.255,5.353-3.383,8.804-3.383C504.109,36.807,507.887,39.43,510.359,44.674z"/>
</g>
</svg>
